<svg id="图层_1" data-name="图层 1" xmlns="http://www.w3.org/2000/svg" viewBox="0 0 881.46 255.1"><defs><style>.cls-1{fill:#a1a1a1;}</style></defs><title>aqara-logo-white</title><path class="cls-1" d="M1231.78,427.73a85.17,85.17,0,0,0-84.29,85.16c0,.28,0,71.23,0,83.4a1.77,1.77,0,0,0,1.77,1.77h26a1.77,1.77,0,0,0,1.77-1.77V512.6a55.61,55.61,0,0,1,54.45-55.31h.28a1.77,1.77,0,0,0,1.78-1.77v-26A1.78,1.78,0,0,0,1231.78,427.73Z" transform="translate(-528.54 -385.45)"/><path class="cls-1" d="M627.25,484.61A28.42,28.42,0,1,0,655.66,513,28.45,28.45,0,0,0,627.25,484.61Z" transform="translate(-528.54 -385.45)"/><path class="cls-1" d="M1243.86,485.63c-8.48,27.23-4,55.55,12.31,77.69a85.18,85.18,0,0,0,117.59,19.27q1.41-1,2.79-2l1-.77a1.79,1.79,0,0,1,2.91,1.39v15.11a1.79,1.79,0,0,0,1.79,1.78h26a1.78,1.78,0,0,0,1.78-1.78v-83c0-.14,0-.27,0-.4a85.57,85.57,0,0,0-34.74-68.65c-22.14-16.3-50.46-20.78-77.69-12.31A81.65,81.65,0,0,0,1243.86,485.63Zm29.61,5.15a51.76,51.76,0,0,1,29.25-29.25,60.66,60.66,0,0,1,22.12-4.27,55.15,55.15,0,0,1,31.26,9.64,55.83,55.83,0,0,1,24.33,44.63v2a55.6,55.6,0,0,1-101.59,30.63C1268.23,528.63,1266.28,509.17,1273.47,490.78Z" transform="translate(-528.54 -385.45)"/><path class="cls-1" d="M768.55,485.63c-8.48,27.23-4,55.55,12.31,77.69a85.18,85.18,0,0,0,117.65,19.23q1.05-.74,2.07-1.5l1.65-1.29a1.78,1.78,0,0,1,2.89,1.4v57.6a1.79,1.79,0,0,0,1.79,1.79h26a1.79,1.79,0,0,0,1.78-1.79V513.27c0-.14,0-.27,0-.39A85.57,85.57,0,0,0,900,444.23c-22.14-16.3-50.46-20.79-77.69-12.31A81.65,81.65,0,0,0,768.55,485.63Zm29.61,5.15a51.76,51.76,0,0,1,29.25-29.25,60.66,60.66,0,0,1,22.12-4.27,55.18,55.18,0,0,1,31.26,9.64,55.83,55.83,0,0,1,24.33,44.63v2a55.61,55.61,0,0,1-101.6,30.65C792.92,528.63,791,509.17,798.16,490.78Z" transform="translate(-528.54 -385.45)"/><path class="cls-1" d="M960.12,485.63c-8.48,27.23-4,55.55,12.31,77.69A85.18,85.18,0,0,0,1090,582.59q1.41-1,2.79-2l1-.77a1.79,1.79,0,0,1,2.91,1.39v15.11a1.79,1.79,0,0,0,1.79,1.78h26a1.78,1.78,0,0,0,1.78-1.78v-83c0-.14,0-.27,0-.4a85.57,85.57,0,0,0-34.74-68.65c-22.14-16.3-50.46-20.78-77.69-12.31A81.65,81.65,0,0,0,960.12,485.63Zm29.61,5.15A51.76,51.76,0,0,1,1019,461.53a60.66,60.66,0,0,1,22.12-4.27,55.18,55.18,0,0,1,31.26,9.64,55.83,55.83,0,0,1,24.33,44.63v2A55.6,55.6,0,0,1,995.1,544.16C984.49,528.63,982.54,509.17,989.73,490.78Z" transform="translate(-528.54 -385.45)"/><path class="cls-1" d="M766.87,595.4,702.8,425a58.17,58.17,0,0,0-110.2-.07L531.06,587.77,528.72,594a2.86,2.86,0,0,0,2.67,3.86h25.36a2.86,2.86,0,0,0,2.67-1.84L581.68,537l1-2.55,2-5.16a4.44,4.44,0,0,0,0-2.9,44.61,44.61,0,0,1,19.51-51.6,4.44,4.44,0,0,0,1.87-2.21l1.15-3.05h0l.95-2.52.72-1.91,11.35-30c.07-.18.13-.36.2-.55,4.82-14.51,17.25-19.68,27.28-19.68S670.15,420,675,434.55c.06.19.12.37.19.54l56.57,150.48L735.65,596a2.84,2.84,0,0,0,2.67,1.85H765.2A1.78,1.78,0,0,0,766.87,595.4Z" transform="translate(-528.54 -385.45)"/></svg>
