<?xml version="1.0" encoding="utf-8"?>
<!-- Generator: Adobe Illustrator 22.0.1, SVG Export Plug-In . SVG Version: 6.00 Build 0)  -->
<svg version="1.1" id="Layer_1" xmlns="http://www.w3.org/2000/svg" xmlns:xlink="http://www.w3.org/1999/xlink" x="0px" y="0px"
	 viewBox="0 0 99 37.7" style="enable-background:new 0 0 99 37.7;" xml:space="preserve">
<style type="text/css">
	.st0{fill:#231F20;}
</style>
<path class="st0" d="M14,18.7c0,2.5-2,4.5-4.5,4.5c-2.5,0-4.5-2-4.5-4.5c0-2.5,2-4.5,4.5-4.5l4.5,0L14,18.7z M19,0.2H14v9.1
	c-1.7,0-3.4,0-4.5,0c-5.2,0-9.4,4.2-9.4,9.4c0,5.2,4.2,9.4,9.4,9.4c5.2,0,9.4-4.2,9.4-9.4c0-2.6,0-9.4,0-9.4L19,0.2z"/>
<path class="st0" d="M68.7,23.2c2.5,0,4.5-2,4.5-4.5c0-2.5-2-4.5-4.5-4.5c-2.5,0-4.5,2-4.5,4.5C64.3,21.2,66.3,23.2,68.7,23.2
	 M59.4,18.7c0-5.2,4.2-9.4,9.4-9.4c5.2,0,9.4,4.2,9.4,9.4c0,5.2-4.2,9.4-9.4,9.4C63.6,28.1,59.4,23.9,59.4,18.7"/>
<path class="st0" d="M93.9,18.7c0-2.4-2-4.4-4.4-4.4c-2.4,0-4.4,2-4.4,4.4c0,1.2,0,9,0,9c-2.5,0-4.9,0-4.9,0s0-6.4,0-9
	c0-5.2,4.2-9.4,9.4-9.4c5.2,0,9.4,4.2,9.4,9.4c0,2.6,0,9,0,9s-2.4,0-4.9,0C93.9,27.7,93.9,19.9,93.9,18.7"/>
<path class="st0" d="M47.9,15.5c-0.7-0.5-0.5-1.3,0.7-1.6c1.5-0.4,4.1-0.1,6.3,0.9l2.3-3.2c-1-0.8-3.2-1.9-6.4-2.1
	c0,0-5.4-0.7-7.6,3.4c0,0-1.9,3.8,1.9,6.2c2.3,1.4,6.3,2,7.6,2.6c1,0.6,0.7,1.7-0.8,2c-2.6,0.6-6-0.9-7.1-1.7l-2.4,3.3
	c1.6,1.2,3.6,2.3,6.8,2.8c0,0,5.1,0.9,7.9-2.6c0.5-0.6,2.8-4.9-1.8-7.4C52.9,16.8,49.1,16.2,47.9,15.5"/>
<path class="st0" d="M24.9,31.3c0.2,0.1,2.5,1.7,4.7,1.7c5.4,0.1,5.7-5.5,5.7-6.8c-1,1.1-3.1,1.8-4.4,1.8c-5.2,0-9.3-4-9.3-9.2
	c0-2.6,0-9.1,0-9.1s2.4,0,4.9,0c0,0,0,8,0,9.1c0,2.4,2,4.4,4.4,4.4c2.4,0,4.4-2,4.4-4.4c0-1,0-9.1,0-9.1c2.5,0,4.9,0,4.9,0l0,9.1
	c0,8.1,0.4,16.4-7.5,18.3c-5.9,1.4-10.1-2.3-10.4-2.5L24.9,31.3z"/>
</svg>
