<?xml version="1.0" encoding="UTF-8" standalone="no"?>
<!-- Created with Inkscape (http://www.inkscape.org/) -->

<svg
   xmlns:dc="http://purl.org/dc/elements/1.1/"
   xmlns:cc="http://creativecommons.org/ns#"
   xmlns:rdf="http://www.w3.org/1999/02/22-rdf-syntax-ns#"
   xmlns:svg="http://www.w3.org/2000/svg"
   xmlns="http://www.w3.org/2000/svg"
   xmlns:sodipodi="http://sodipodi.sourceforge.net/DTD/sodipodi-0.dtd"
   xmlns:inkscape="http://www.inkscape.org/namespaces/inkscape"
   version="1.1"
   width="361.9975"
   height="43.855"
   id="svg2"
   xml:space="preserve"
   inkscape:version="0.48.0 r9654"
   sodipodi:docname="Frigidaire.svg"><sodipodi:namedview
     pagecolor="#ffffff"
     bordercolor="#666666"
     borderopacity="1"
     objecttolerance="10"
     gridtolerance="10"
     guidetolerance="10"
     inkscape:pageopacity="0"
     inkscape:pageshadow="2"
     inkscape:window-width="1366"
     inkscape:window-height="706"
     id="namedview13"
     showgrid="false"
     fit-margin-top="1"
     fit-margin-left="1"
     fit-margin-right="1"
     fit-margin-bottom="1"
     inkscape:zoom="1.3333333"
     inkscape:cx="181"
     inkscape:cy="-7.5194959"
     inkscape:window-x="-8"
     inkscape:window-y="-8"
     inkscape:window-maximized="1"
     inkscape:current-layer="g10" /><metadata
     id="metadata8"><rdf:RDF><cc:Work
         rdf:about=""><dc:format>image/svg+xml</dc:format><dc:type
           rdf:resource="http://purl.org/dc/dcmitype/StillImage" /></cc:Work></rdf:RDF></metadata><defs
     id="defs6"><clipPath
       id="clipPath18"><path
         d="m 0,0 2879.99,0 0,805.996 L 0,805.996 0,0 z"
         inkscape:connector-curvature="0"
         id="path20" /></clipPath></defs><g
     transform="matrix(1.25,0,0,-1.25,1,101.7495)"
     id="g10"><g
       transform="scale(0.1,0.1)"
       id="g12"><g
         id="g14"><g
           clip-path="url(#clipPath18)"
           id="g16"><path
             d="m 1670.62,471.695 333.74,0 -166.85,334.301 z m 1186.54,25.137 c 3.14,0 5,1.563 5,4.027 0,2.727 -1.86,4.145 -5,4.145 l -6.27,0 0,-8.172 z m -11.07,12.594 11.28,0 c 3.33,0 5.93,-1.02 7.67,-2.789 1.32,-1.285 2.06,-3.129 2.06,-5.375 0,-4.297 -2.38,-6.887 -5.85,-7.895 l 6.79,-9.758 -5.74,0 -6.13,8.93 -5.28,0 0,-8.93 -4.8,0 z m 31.35,-13.617 c 0,12.32 -9.27,22.203 -21.53,22.203 -12.36,0 -21.71,-10.004 -21.71,-22.203 0,-12.332 9.28,-22.196 21.56,-22.196 12.34,0 21.68,9.996 21.68,22.196 m -45.77,-0.129 c 0,13.554 10.68,24.789 24.24,24.789 13.54,0 24.07,-11.098 24.07,-24.524 0,-13.562 -10.68,-24.789 -24.22,-24.789 -13.53,0 -24.09,11.102 -24.09,24.524 m -539.44,138.312 0,108.016 80.61,0 c 40.98,0 65.32,-18.824 65.32,-53.32 0,-33.551 -25.25,-54.696 -64.86,-54.696 z m 127,-40.476 c 44.11,12.875 75.2,44.589 75.2,97.461 0,29.003 -9.48,52.89 -26.1,70.371 -20.29,20.195 -51.38,32.136 -90.97,32.136 l -140.53,0 0,-321.789 55.4,0 0,112.157 68.45,0 78.34,-112.157 65.33,0 z m -829.06,38.172 c 0,-62.961 -43.26,-108.446 -109.39,-108.446 l -62.16,0 0,218.766 62.16,0 c 66.13,0 109.39,-46.422 109.39,-109.391 z m -109.39,161.796 -117.62,0 0,-321.789 117.62,0 c 99.04,0 167.55,70.34 167.55,160.922 0,91.488 -68.51,160.867 -167.55,160.867 m -285.22,-160.632 0,-161.157 55.42,0 0,321.789 -55.42,0 z m -535.56,5.363 0,-166.52 55.395,0 0,321.789 -55.395,0 z m -293.48,-4.223 0,108.016 80.644,0 c 40.965,0 65.285,-18.824 65.285,-53.32 0,-33.551 -25.215,-54.696 -64.847,-54.696 z m 127.019,-40.476 c 44.113,12.875 75.215,44.589 75.215,97.461 0,29.003 -9.469,52.89 -26.121,70.371 -20.266,20.195 -51.367,32.136 -90.949,32.136 l -140.532,0 0,-321.789 55.368,0 0,112.157 68.48,0 78.352,-112.157 65.316,0 z M -0.0195312,471.695 l 55.3750312,0 0,131.032 179.1915,0 0,51.433 -179.1915,0 0,87.848 179.2775,0 0,51.476 -234.6525312,0 z M 2641.85,522.27 l 0,86.453 178.32,0 0,50.562 -178.32,0 0,83.672 178.32,0 0,50.527 -233.71,0 0,-321.789 233.78,0 0,50.575 z m -1679.666,85.523 80.546,0 0,-60.242 c -19.3,-14.707 -46.343,-24.336 -76.054,-24.336 -64.395,0 -107.184,48.703 -107.184,114.89 0,62.555 44.113,114.481 102.203,114.481 40.105,0 63.935,-13.332 88.265,-34.465 l 35.13,42.785 c -32.37,28.016 -66.24,43.633 -121.121,43.633 -95.039,0 -162.598,-76.328 -162.598,-166.434 0,-94.667 64.883,-166.41 163.465,-166.41 55.854,0 100.424,23 131.524,50.145 l 0,135.187 -134.176,0 z m 1106.836,25.059 0,-161.157 55.4,0 0,321.789 -55.4,0 0,-160.632"
             inkscape:connector-curvature="0"
             id="path22"
             style="fill:#133a73;fill-opacity:1;fill-rule:evenodd;stroke:none"
             sodipodi:nodetypes="ccccsssccscscscccccccccsssccssscccsssccscsccccccccssccssscccsscccccccccccccccsssccscscccccccccccccccccccccccccccccccccccsssccssscccccccccc" /><path
             d="m 1754.65,523.34 82.51,169.355 83.17,-169.355 -165.68,0"
             inkscape:connector-curvature="0"
             id="path24"
             style="fill:#ed114c;fill-opacity:1;fill-rule:evenodd;stroke:none" /></g></g></g></g></svg>