<?xml version="1.0" encoding="utf-8"?>
<!-- Generator: Adobe Illustrator 24.2.1, SVG Export Plug-In . SVG Version: 6.00 Build 0)  -->
<svg version="1.1" id="Layer_1" xmlns="http://www.w3.org/2000/svg" xmlns:xlink="http://www.w3.org/1999/xlink" x="0px" y="0px"
	 viewBox="0 0 517.2 154" style="enable-background:new 0 0 517.2 154;" xml:space="preserve">
<style type="text/css">
	.st0{fill:#414042;}
	.st1{fill:#58B947;}
</style>
<path class="st0" d="M118.8,50.8c-15.4,0-28,12.4-28,27.8c0,0,0,0,0,0.1v26.3H102V78.7c-0.1-4.4,1.7-8.7,4.9-11.8
	c3.1-3.2,7.4-4.9,11.9-4.8c9.2,0,16.6,7.5,16.7,16.6v26.3h11.2V78.7C146.7,63.2,134.2,50.8,118.8,50.8
	C118.7,50.8,118.7,50.8,118.8,50.8"/>
<path class="st0" d="M317.3,58.9C306.4,48,288.7,48,277.8,59c-5.2,5.2-8.2,12.3-8.2,19.7c-0.3,15.4,12,28.1,27.4,28.4
	c15.4,0.3,28.1-12,28.4-27.4c0-0.4,0-0.7,0-1.1C325.6,71.2,322.7,64.1,317.3,58.9 M309.4,90.5c-3.1,3.2-7.3,5-11.8,4.9
	c-9.2,0-16.7-7.5-16.7-16.7c-0.1-4.4,1.7-8.7,4.9-11.8c3.1-3.2,7.4-4.9,11.8-4.8c9.2,0.1,16.6,7.5,16.6,16.6
	C314.3,83.1,312.6,87.4,309.4,90.5"/>
<rect x="328.8" y="20.5" class="st0" width="11.2" height="84.4"/>
<path class="st0" d="M371.3,50.9c-7.4-0.1-14.6,2.8-19.8,8.1c-5.4,5.1-8.3,12.3-8.2,19.7c0,15.4,12.5,27.9,27.9,27.9
	c6.5,0,12.9-2.3,17.9-6.5l-6.7-8.9c-3,2.8-7,4.4-11.1,4.3c-7.4,0-13.9-4.8-16-11.8l-0.8-2.5H399c0.1-0.8,0.1-1.7,0.1-2.5
	c0-15.3-12.4-27.8-27.7-27.8C371.4,50.9,371.4,50.9,371.3,50.9 M384.2,73.8h-29.1l1.5-2.8c2.7-5.7,8.5-9.2,14.7-8.9
	c6.6,0,11.5,3,14.6,8.9l1.5,2.8H384.2z"/>
<path class="st0" d="M454.7,69.4c-1.9-5.4-5.5-10.1-10.2-13.4c-4.7-3.3-10.3-5.1-16-5.1c-3.3,0-6.5,0.6-9.6,1.8
	c-14.4,5.3-21.9,21.2-16.6,35.7c4,11,14.4,18.3,26.1,18.3c8.2,0.2,16.1-3.4,21.3-9.8l2.1-2.5l1.1,3.2l2.7,7.4h11.9L454.7,69.4z
	 M440.3,90.8c-3.1,3.2-7.4,4.9-11.8,4.9c-3.4,0-6.7-1.1-9.5-3.1c-4.6-3-7.3-8.2-7.2-13.7c0-3.4,1-6.8,3-9.6c3-4.6,8.2-7.3,13.6-7.1
	c3.4,0,6.7,1,9.5,2.9c7.6,5.3,9.5,15.7,4.2,23.3C441.7,89.3,441,90,440.3,90.8"/>
<path class="st0" d="M474.3,104.9V82.7h14.8v-9h-14.8V48.5c0-8.5,6.4-15.7,14.8-16.6V20.6c-6.8,0.3-13.2,3.2-17.9,8.1
	c-5.4,5.2-8.3,12.4-8.1,19.8v38.3l6.6,18.1L474.3,104.9z"/>
<path class="st0" d="M202.8,69.4c-1.9-5.4-5.5-10.1-10.2-13.4c-4.7-3.3-10.3-5.1-16-5.1c-9.1,0.1-17.6,4.6-22.9,12
	c-3.3,4.7-5.1,10.3-5,16c0,3.2,0.5,6.4,1.7,9.5c3.9,11.1,14.4,18.4,26.2,18.4c8.2,0.2,16.1-3.4,21.3-9.8l2.1-2.5l1.1,3.1l2.7,7.4
	h11.9L202.8,69.4z M188.4,90.8c-3.1,3.2-7.4,4.9-11.8,4.9c-3.4,0-6.7-1.1-9.5-3.1c-4.6-3-7.3-8.2-7.2-13.7c0-3.4,1-6.8,3-9.6
	c3-4.6,8.1-7.3,13.6-7.1c3.4,0,6.7,1,9.5,2.9c7.6,5.3,9.5,15.7,4.2,23.3C189.7,89.3,189.1,90,188.4,90.8"/>
<path class="st0" d="M222.6,104.9V78.7c-0.1-4.4,1.7-8.7,4.9-11.8c3.1-3.2,7.4-4.9,11.9-4.8c9.2,0,16.6,7.5,16.7,16.6v26.3h11.3
	V78.7c-0.1-15.5-12.7-27.9-28.1-27.9c-7.3,0-14.4,3-19.6,8.1c-5.4,5.1-8.3,12.3-8.2,19.7v8.6l6.4,17.7H222.6z"/>
<path class="st1" d="M72,106.3c-5,2.5-5-12.4-8.6-9.7c-16.1,10.6-17.5,7.9-24,5.7C30.7,99.7,9.8,91.2,3.2,77.8
	C-3.3,61,2,35.7,2.9,31.8C5.5,21,12,19,17.1,17.9c18.8-2.8,47.4,7.3,53.2,12.4c7.4,6.2,16.1,42.5,12.7,53.2
	c-1.1,3.4-12.4,6.5-13.6,9C67.1,95.6,77.4,104,72,106.3 M29.5,51.8c2.5,4,7.4,5.6,10.8,3.5s4.1-7,1.6-11.1s-7.4-5.6-10.8-3.5
	S27,47.7,29.5,51.8 M30.7,78.4c2.5,4,7.3,5.6,10.8,3.5s4.1-7,1.6-11s-7.3-5.6-10.8-3.5S28.2,74.4,30.7,78.4 M53.2,64.7
	c2.5,4,7.3,5.6,10.8,3.5c3.4-2.1,4.1-7,1.6-11c-2.5-4-7.4-5.6-10.8-3.5S50.7,60.7,53.2,64.7"/>
<path class="st1" d="M226.7,126.2c0,0.2-0.2,0.4-0.5,0.4c-0.1,0-0.1,0-0.2-0.1c-1.4-0.6-3-0.9-4.5-0.8c-3.6,0-5.6,1.5-5.6,3.7
	s1.4,3.7,5.1,4.9c5,1.7,7.2,3.6,7.2,7.2c0,3.9-2.9,6.3-8.1,6.3c-2,0-4.1-0.5-5.9-1.4c-0.2-0.1-0.3-0.3-0.3-0.5l0.1-1.2
	c0-0.2,0.2-0.4,0.4-0.4c0.1,0,0.2,0,0.3,0.1c1.7,1,3.6,1.5,5.5,1.5c3.8,0,5.8-1.7,5.8-4.3s-1.8-4-5.8-5.3c-4.3-1.4-6.5-3.2-6.5-6.8
	s3.1-5.7,7.8-5.7c1.7,0,3.3,0.2,4.9,0.8c0.2,0.1,0.4,0.3,0.4,0.5L226.7,126.2z"/>
<path class="st1" d="M244.2,132.5c1.5-1.7,3.7-2.7,6-2.7c3.6,0,6.2,2.4,6.2,7.4v9.8c0,0.3-0.2,0.5-0.4,0.5c0,0,0,0,0,0h-1.1
	c-0.3,0-0.5-0.2-0.5-0.4c0,0,0,0,0,0v-9.8c0-3.7-1.6-5.6-4.4-5.6c-2,0-3.8,1-5,2.5c0.3,1,0.5,2.1,0.5,3.1v9.7c0,0.2-0.2,0.5-0.4,0.5
	c0,0,0,0,0,0H244c-0.3,0-0.5-0.2-0.5-0.4c0,0,0,0,0,0v-9.8c0-3.7-1.6-5.6-4.4-5.6c-1.8,0-3.5,0.8-4.6,2.2v13.1
	c0,0.3-0.2,0.5-0.5,0.5c0,0,0,0,0,0h-1c-0.3,0-0.5-0.2-0.5-0.5c0,0,0,0,0,0v-16.3c0-0.3,0.2-0.5,0.5-0.5c0,0,0,0,0,0h1
	c0.3,0,0.5,0.2,0.5,0.5c0,0,0,0,0,0v1.2c1.3-1.3,3-2,4.9-2.1C241.4,129.7,243.2,130.8,244.2,132.5z"/>
<path class="st1" d="M260.1,142.5c0-3.4,2.6-5.6,7.4-5.6h4.8v-1.1c0-3.1-1.5-4.2-4.8-4.2c-1.7,0-3.5,0.3-5.1,1
	c-0.3,0.1-0.6,0-0.7-0.3l-0.1-0.8c-0.1-0.2,0.1-0.5,0.3-0.6c1.8-0.7,3.7-1.1,5.6-1.1c4.6,0,6.8,1.6,6.8,6.2v10.9
	c0,0.3-0.2,0.5-0.4,0.5c0,0,0,0,0,0h-1.1c-0.2,0-0.5-0.2-0.5-0.4c0,0,0,0,0,0v-1.6c-1.5,1.7-3.7,2.6-5.9,2.5
	C263,147.8,260.1,146,260.1,142.5z M272.4,143.4v-4.7h-4.8c-3.7,0-5.4,1.5-5.4,3.8c0,2.4,1.9,3.6,4.4,3.6
	C268.8,146.1,271,145.2,272.4,143.4L272.4,143.4z"/>
<path class="st1" d="M281.3,135.1v11.8c0,0.2-0.2,0.5-0.4,0.5c0,0,0,0,0,0h-1c-0.3,0-0.5-0.2-0.5-0.5c0,0,0,0,0,0v-16.3
	c0-0.3,0.2-0.5,0.5-0.5c0,0,0,0,0,0h1c0.2,0,0.5,0.2,0.5,0.4c0,0,0,0,0,0v2c1.2-1.8,3.2-2.9,5.3-2.9c0.6,0,1.1,0.1,1.6,0.2
	c0.2,0,0.4,0.2,0.4,0.5c0,0,0,0,0,0l-0.1,1c0,0.3-0.3,0.4-0.6,0.3c-0.5-0.1-1-0.2-1.5-0.2C284.2,131.6,282.4,132.8,281.3,135.1z"/>
<path class="st1" d="M289.7,130.6c0-0.2,0.2-0.5,0.4-0.5c0,0,0,0,0,0h2.8v-4.7c0-0.3,0.2-0.5,0.5-0.5c0,0,0,0,0,0h1
	c0.3,0,0.5,0.2,0.5,0.5c0,0,0,0,0,0v4.7h5c0.2,0,0.5,0.2,0.5,0.4c0,0,0,0,0,0v0.8c0,0.2-0.2,0.5-0.4,0.5c0,0,0,0,0,0h-5v9.6
	c0,3.3,0.9,4.5,3.3,4.5c0.5,0,0.9,0,1.4-0.1c0.3-0.1,0.5,0,0.6,0.3l0.1,1c0.1,0.2-0.1,0.5-0.3,0.5c0,0,0,0-0.1,0
	c-0.6,0.1-1.2,0.2-1.8,0.1c-3.4,0-5.1-1.8-5.1-5.7v-10.2h-2.8c-0.2,0-0.5-0.2-0.5-0.4c0,0,0,0,0,0L289.7,130.6z"/>
<path class="st1" d="M316,144.9c0.3-0.2,0.6-0.1,0.6,0.3l0.1,0.9c0,0.2-0.1,0.4-0.3,0.6c-1.6,0.8-3.3,1.2-5,1.1
	c-5.7,0-8.6-3.9-8.6-9.1c0-5.4,3.1-8.9,7.6-8.9s7.7,3.7,7.7,8.8v0.5c0,0.3-0.2,0.5-0.4,0.5c0,0,0,0,0,0H305c0.2,3.9,2.5,6.4,6.5,6.4
	C313,146,314.6,145.7,316,144.9z M316,137.9c-0.1-3.8-2.3-6.3-5.5-6.3s-5.3,2.4-5.5,6.3H316z"/>
<path class="st1" d="M324,135.1v11.8c0,0.2-0.2,0.5-0.4,0.5c0,0,0,0,0,0h-1.1c-0.3,0-0.5-0.2-0.5-0.5c0,0,0,0,0,0v-16.3
	c0-0.3,0.2-0.5,0.5-0.5c0,0,0,0,0,0h1c0.2,0,0.5,0.2,0.5,0.4c0,0,0,0,0,0v2c1.2-1.8,3.2-2.9,5.3-2.9c0.6,0,1.1,0.1,1.6,0.2
	c0.2,0,0.4,0.3,0.3,0.5c0,0,0,0,0,0l-0.1,1c0,0.3-0.3,0.4-0.6,0.3c-0.5-0.1-1-0.2-1.5-0.2C326.9,131.6,325.2,132.8,324,135.1z"/>
<path class="st1" d="M346.5,145.8v1.1c0,0.3-0.2,0.5-0.5,0.5c0,0,0,0,0,0h-1c-0.3,0-0.5-0.2-0.5-0.4c0,0,0,0,0,0v-23.3
	c0-0.3,0.2-0.5,0.5-0.5c0,0,0,0,0,0h1c0.3,0,0.5,0.2,0.5,0.4c0,0,0,0,0,0v8.2c1.4-1.3,3.2-2,5.1-2c4.5,0,8,3.4,8,9s-3.5,9-8,9
	C349.7,147.8,347.9,147.1,346.5,145.8z M357.6,138.8c0-4.6-2.8-7.2-6.2-7.2c-1.8,0-3.6,0.7-4.9,2.1v10.2c1.2,1.4,3,2.1,4.9,2.1
	C354.8,146,357.6,143.4,357.6,138.8L357.6,138.8z"/>
<path class="st1" d="M375.4,130.5c0.1-0.2,0.2-0.3,0.4-0.3h1.3c0.2,0,0.4,0.1,0.5,0.4c0,0.1,0,0.2,0,0.2l-9.1,22.7
	c-0.1,0.2-0.2,0.3-0.4,0.3h-1.2c-0.2,0-0.5-0.1-0.5-0.4c0-0.1,0-0.2,0-0.2l2.3-5.8l-7-16.5c-0.1-0.2,0-0.5,0.2-0.6
	c0.1,0,0.2-0.1,0.2-0.1h1.2c0.2,0,0.4,0.1,0.4,0.3l5.9,14.4L375.4,130.5z"/>
<path class="st1" d="M397,147.4h-4.8c-0.3,0-0.5-0.2-0.5-0.5c0,0,0,0,0,0v-22.3c0-0.3,0.2-0.5,0.5-0.5c0,0,0,0,0,0h4.8
	c7.6,0,12.7,4,12.7,11.6S404.6,147.4,397,147.4z M396.7,126h-2.9v19.5h2.9c6.6,0,10.8-3,10.8-9.8S403.4,126,396.7,126z"/>
<path class="st1" d="M426.1,144.9c0.3-0.2,0.6-0.1,0.6,0.3l0.1,0.9c0,0.2-0.1,0.4-0.3,0.6c-1.6,0.8-3.3,1.2-5,1.1
	c-5.7,0-8.6-3.9-8.6-9.1c0-5.4,3.1-8.9,7.6-8.9s7.7,3.7,7.7,8.8v0.5c0,0.2-0.2,0.5-0.4,0.5c0,0,0,0,0,0h-12.7
	c0.2,3.9,2.5,6.4,6.5,6.4C423.2,146,424.8,145.7,426.1,144.9z M426.1,137.9c-0.1-3.8-2.3-6.3-5.5-6.3s-5.3,2.4-5.5,6.3H426.1z"/>
<path class="st1" d="M437.5,131.6c-2.6,0-4,1-4,2.6s1.2,2.7,4.2,3.5c4.1,1.1,5.6,2.8,5.6,5.2c0,3.2-2.5,4.9-6.6,4.9
	c-1.8,0-3.6-0.4-5.2-1.3c-0.2-0.1-0.3-0.3-0.3-0.6l0.1-0.9c0-0.2,0.2-0.4,0.5-0.4c0.1,0,0.2,0,0.3,0.1c1.4,0.9,3,1.3,4.6,1.3
	c3,0,4.5-1.2,4.5-3.1c0-1.6-1.2-2.8-4.5-3.6c-3.7-0.9-5.4-2.6-5.4-5.1c0-2.9,2.5-4.5,6.1-4.5c1.5,0,3.1,0.3,4.5,0.9
	c0.2,0.1,0.4,0.3,0.3,0.6l-0.1,1c0,0.4-0.4,0.5-0.7,0.3C440.3,131.9,439,131.6,437.5,131.6z"/>
<path class="st1" d="M450.3,124.9c0,1.3-0.4,1.8-1.3,1.8s-1.3-0.5-1.3-1.8s0.4-1.8,1.3-1.8S450.3,123.6,450.3,124.9z M450.1,146.9
	c0,0.3-0.2,0.5-0.4,0.5c0,0,0,0,0,0h-1.1c-0.3,0-0.5-0.2-0.5-0.4c0,0,0,0,0,0v-16.2c0-0.3,0.2-0.5,0.4-0.5c0,0,0,0,0,0h1.1
	c0.3,0,0.5,0.2,0.5,0.4c0,0,0,0,0,0V146.9z"/>
<path class="st1" d="M467.7,131.7v-1.1c0-0.3,0.2-0.5,0.5-0.5c0,0,0,0,0,0h1c0.2,0,0.5,0.2,0.5,0.4c0,0,0,0,0,0v15.6
	c0,5.5-2.3,7.8-7.6,7.8c-1.9,0-3.7-0.4-5.4-1.1c-0.2-0.1-0.3-0.3-0.3-0.5l0.1-1c0-0.2,0.2-0.4,0.4-0.4c0.1,0,0.2,0,0.3,0.1
	c1.5,0.8,3.3,1.2,5,1.2c3.8,0,5.6-1.5,5.6-5.6v-1.1c-1.4,1.3-3.2,2-5.1,2c-4.5,0-8-3.3-8-8.9s3.6-8.9,8-8.9
	C464.5,129.8,466.3,130.5,467.7,131.7z M456.6,138.7c0,4.6,2.8,7.1,6.2,7.1c1.8,0,3.6-0.7,4.9-2.1v-10.1c-1.2-1.4-3-2.1-4.9-2.1
	C459.4,131.6,456.6,134.1,456.6,138.7L456.6,138.7z"/>
<path class="st1" d="M476.8,133.8v13.1c0,0.2-0.2,0.5-0.4,0.5c0,0,0,0,0,0h-1.1c-0.2,0-0.5-0.2-0.5-0.4c0,0,0,0,0,0v-16.3
	c0-0.2,0.2-0.5,0.4-0.5c0,0,0,0,0,0h1.1c0.2,0,0.5,0.2,0.5,0.4c0,0,0,0,0,0v1.2c1.5-1.3,3.4-2.1,5.3-2.1c4.4,0,7.1,2.7,7.1,7.6v9.5
	c0,0.3-0.2,0.5-0.5,0.5c0,0,0,0,0,0h-1c-0.2,0-0.5-0.2-0.5-0.4c0,0,0,0,0,0v-9.4c0-3.9-1.8-5.9-5.3-5.9
	C479.9,131.6,478.1,132.4,476.8,133.8z"/>
<path class="st0" d="M511.7,26h-2l-3-4.9h-2.1V26h-1.9V14.6h4.1c1.1,0,2.2,0.2,3.2,0.8c0.8,0.5,1.3,1.5,1.2,2.5
	c0,0.8-0.3,1.5-0.8,2.1c-0.5,0.5-1.2,0.8-1.9,0.9L511.7,26z M509.4,17.9c0-0.6-0.2-1.1-0.7-1.5c-0.7-0.4-1.5-0.6-2.3-0.5h-1.8v3.9
	h2.3c0.6,0,1.2-0.1,1.7-0.4C509.1,19.1,509.4,18.5,509.4,17.9L509.4,17.9z"/>
<path class="st0" d="M517.2,20.6c0,5.8-4.7,10.5-10.5,10.5c-5.8,0-10.5-4.7-10.5-10.5c0-5.8,4.7-10.5,10.5-10.5
	C512.5,10.1,517.2,14.8,517.2,20.6C517.2,20.6,517.2,20.6,517.2,20.6z M506.7,11.8c-4.9,0-8.8,3.9-8.8,8.7s3.9,8.8,8.7,8.8
	c4.9,0,8.8-3.9,8.8-8.7c0,0,0,0,0,0C515.5,15.7,511.6,11.8,506.7,11.8z"/>
</svg>
