<?xml version="1.0" encoding="utf-8"?>
<!-- Generator: Adobe Illustrator 19.2.1, SVG Export Plug-In . SVG Version: 6.00 Build 0)  -->
<svg version="1.1" id="layer" xmlns="http://www.w3.org/2000/svg" xmlns:xlink="http://www.w3.org/1999/xlink" x="0px" y="0px"
	 viewBox="0 0 652 652" style="enable-background:new 0 0 652 652;" xml:space="preserve">
<style type="text/css">
	.st0{fill:#E10535;}
	.st1{fill:#E30030;}
	.st2{fill:#737272;}
</style>
<g>
	<path class="st0" d="M482.6,222.7c-10.2,0-18.6-8.3-18.6-18.6c0-10.3,8.3-18.6,18.6-18.6c10.3,0,18.6,8.3,18.6,18.6
		C501.3,214.4,492.9,222.7,482.6,222.7 M157.9,416.9c-10.3,0-18.5-8.3-18.5-18.6c0-10.3,8.3-18.6,18.5-18.6
		c10.3,0,18.6,8.3,18.6,18.6C176.5,408.5,168.2,416.9,157.9,416.9 M482.6,154.6c-8.3,0-16.1,2.1-23.1,5.7L331.3,78.6
		c-6.4-4.1-14.5-4.1-20.9,0L147.2,182.5c-5.6,3.6-9,9.8-9,16.4v153.9c-17.6,7.6-29.9,25.1-29.9,45.5c0,27.4,22.2,49.6,49.6,49.6
		c27.4,0,49.6-22.2,49.6-49.6c0-20.6-12.6-38.3-30.5-45.7V209.6l143.8-91.7L435,190.6c-1.2,4.3-1.9,8.8-1.9,13.5
		c0,21,13.1,38.9,31.6,46.2v154h-176V294.2h63.6v85.4c0,1.9,1.5,3.4,3.4,3.4h32c1.9,0,3.4-1.5,3.4-3.4V274.9
		c0-10.8-8.7-19.4-19.4-19.4H269.2c-10.7,0-19.4,8.6-19.4,19.4v148.9c0,10.7,8.7,19.4,19.4,19.4h214.9c10.7,0,19.4-8.7,19.4-19.4
		V249.1c16.9-7.9,28.7-25,28.7-44.9C532.3,176.8,510,154.6,482.6,154.6"/>
</g>
<polygon class="st1" points="330.4,575.5 342.3,575.5 342.3,515.9 363.5,515.9 363.5,506.3 309.1,506.3 309.1,515.9 330.4,515.9 "/>
<g>
	<path class="st1" d="M468.4,527.2c-2.9,0-5.8,0.4-8.4,1.3c-0.7,0.2-1.3,0.4-1.9,0.7c-0.1,0-0.2,0.1-0.4,0.1l-0.2,0.1
		c-0.4,0.2-0.8,0.3-1.2,0.5c-0.3,0.1-0.5,0.2-0.7,0.4l-0.4,0.3c-0.2,0.1-0.3,0.1-0.5,0.2c-0.4,0.2-0.8,0.5-1.2,0.8l-0.2,0.1
		c-0.6,0.4-1,0.7-1.4,1.1c-1.5,1.3-2.7,2.7-3.5,4.1c-0.4,0.8-1.5,3.4-1.5,8.4v30.3h11.6v-29.5c0-0.7,0.1-1.2,0.2-1.7
		c0-0.2,0.1-0.5,0.2-0.8c1.5-4.7,6.9-6.2,8.6-6.4l0.3,0c0.1,0,0.3,0,0.5,0l1,0.1c3.1,0.4,8.8,3,8.8,8.9v29.5h11.6v-30.3
		c0-5.5-1.4-8.3-1.7-8.8C484.7,531,476.7,527.2,468.4,527.2"/>
	<path class="st1" d="M391.3,527.2c-2.8,0-5.5,0.4-8.1,1.2l-1.7,0.5v-22.6h-11.6v69.2h11.7v-29.8c0-0.5,0.1-0.9,0.1-1.3
		c0-0.2,0.1-0.5,0.2-0.8c1.6-4.7,6.9-6.2,8.6-6.4l0.3,0c0.1,0,0.3,0,0.4,0l1,0.1c3.1,0.4,8.8,3,8.8,8.9v29.5h11.6v-30.3
		c0-5.5-1.4-8.3-1.7-8.8C407.6,531,399.6,527.2,391.3,527.2"/>
	<path class="st1" d="M436.9,518.5c0,3.9-3.2,7-7,7c-3.9,0-7-3.1-7-7c0-3.9,3.1-7,7-7C433.8,511.4,436.9,514.6,436.9,518.5"/>
	<path class="st1" d="M424.1,532.3v43.3h11.6v-43.3c-1.8,0.7-3.8,1.2-5.8,1.2C427.8,533.4,425.9,533,424.1,532.3"/>
	<path class="st1" d="M538.8,550.7c-0.5,3.3-1.4,6.1-2.6,8.4c-1.2,2.3-2.9,4-4.9,5.1c-1.5,0.8-3.4,1.4-5.5,1.6l-1.2,0.1
		c-0.2,0-0.3,0-0.6,0c-2.7,0-4.9-0.6-6.6-1.9c-1.7-1.3-3.2-3.1-4.2-5.4c-1-2.3-1.8-4.9-2.1-8c-0.4-3-0.5-6.3-0.5-9.6
		c0-4.2,0.3-8,0.8-11.3c0.5-3.3,1.4-6.1,2.7-8.4c1.3-2.3,3-4.1,5.1-5.3c2.1-1.2,4.4-1.7,7.3-1.7c2.7,0,4.9,0.7,6.6,2
		c1.8,1.4,3.2,3.2,4.2,5.5c1,2.2,1.7,4.9,2.1,7.9c0.4,3,0.6,6.2,0.6,9.5C539.6,543.4,539.3,547.3,538.8,550.7 M560.9,569.9
		c-1.3-4.3-6.1-4.2-6.1-4.2h-10.5l0.6-0.8c1.5-2.2,2.7-4.5,3.7-7c1.7-4.5,2.6-10.3,2.6-17.4c0-5.5-0.4-10.6-1.2-15.1
		c-0.9-4.4-2.3-8.2-4.2-11.2c-2-3.1-4.6-5.4-7.8-7.1c-3.2-1.6-7.2-2.5-11.9-2.5c-9.3,0-16.2,2.9-20.6,8.7
		c-4.3,5.7-6.5,14.7-6.5,26.6c0,5.6,0.4,10.6,1.3,15c0.8,4.4,2.3,8.1,4.2,11.1c2,3,4.5,5.4,7.7,7c3.1,1.6,7.1,2.5,11.8,2.5h0.1
		c0.1,0,0.2,0,0.2,0c0.1,0,0.2,0,0.3,0c0,0,0.1,0,0.1,0l38,0L560.9,569.9z"/>
	<path class="st2" d="M59.8,542.9c-2.6-0.6-4.7-1.6-6.6-3c-1.9-1.4-3.3-3-4.5-4.8c-1.1-1.8-1.9-3.8-2.4-5.9
		c-0.4-2.1-0.5-4.3-0.2-6.4c0.3-2.4,0.9-4.6,1.7-6.6c0.9-2,2.1-3.8,3.6-5.2c1.6-1.5,3.5-2.6,5.8-3.4c2.3-0.8,5-1.2,8.1-1.2H97
		l-4.6,9.1h-27c-2.3,0-4.2,0.7-5.8,2.1c-1.6,1.4-2.6,3.3-2.9,5.8c-0.3,2.2,0.1,4.2,1.1,6c1,1.8,2.9,3.1,5.9,3.8
		c0.9,0.2,2.4,0.6,4.3,1.1c2,0.5,4,1.1,6.2,1.6c2.1,0.6,4.2,1.2,6.1,1.7c1.9,0.5,3.3,0.9,4.2,1.1c2.8,0.8,5.2,1.9,7.2,3.4
		c1.9,1.5,3.4,3.1,4.5,5c1.1,1.9,1.9,3.8,2.2,6c0.4,2.1,0.4,4.3,0.2,6.5c-0.4,4.9-2.3,8.8-5.7,11.7c-3.3,2.9-7.8,4.4-13.3,4.4H47.2
		l4.7-9.1h26.9c1.5,0,2.8-0.2,3.9-0.7c1.1-0.5,2.1-1,2.8-1.8c0.8-0.7,1.3-1.5,1.7-2.5c0.4-0.9,0.6-1.8,0.7-2.7
		c0.1-1.1,0.1-2.1-0.1-3.2c-0.1-1.1-0.4-2-0.9-3c-0.4-0.9-1.1-1.7-2-2.5c-0.8-0.7-1.9-1.2-3.3-1.6c-0.8-0.2-2.2-0.6-4.3-1.1
		c-2.1-0.5-4.3-1.1-6.6-1.7c-2.3-0.6-4.5-1.2-6.6-1.7C62,543.5,60.6,543.1,59.8,542.9"/>
	<path class="st2" d="M160,526.2c2,0.9,3.8,2,5.3,3.6c1.5,1.5,2.7,3.4,3.5,5.5c0.8,2.2,1.3,4.5,1.3,7.1v33.1h-9.6v-33.4
		c0-2.5-0.7-4.6-2-6.1c-1.3-1.6-3.2-2.4-5.7-2.4h-9.2v41.9h-9.7v-41.9h-16.4v41.9h-9.7v-50.6h45.7
		C155.8,524.9,157.9,525.3,160,526.2"/>
	<path class="st2" d="M214.7,553.7h-19.4c-2.2,0-3.9,0.7-4.9,2.1c-1.1,1.4-1.6,2.9-1.6,4.6c0,1.7,0.5,3.2,1.6,4.5c1,1.3,2.6,2,4.7,2
		h19.6V553.7z M205.8,524.9c6,0,10.6,1.5,13.8,4.5c3.3,3,4.9,7.4,4.9,13.1v33h-29.9c-2.6,0-4.9-0.4-6.9-1.2c-2-0.8-3.6-1.9-4.9-3.3
		c-1.3-1.4-2.3-2.9-3-4.8c-0.7-1.8-1-3.7-1-5.8c0-2,0.4-3.9,1-5.7c0.7-1.8,1.7-3.4,3-4.8c1.3-1.4,2.9-2.5,4.9-3.3
		c2-0.8,4.2-1.2,6.9-1.2h20.1v-3c0-2.8-0.7-5.1-2.1-6.6c-1.4-1.5-3.6-2.3-6.6-2.3h-22.7l4.4-8.5H205.8z"/>
	<path class="st2" d="M261.4,533.4h-7.9c-2.5,0-4.5,0.9-6,2.7c-1.5,1.8-2.2,4.1-2.2,6.8v32.6h-9.7v-32.3c0-2.4,0.4-4.7,1.2-7
		c0.8-2.2,1.9-4.2,3.4-5.8c1.5-1.6,3.3-3,5.4-4c2.1-1,4.6-1.5,7.4-1.5h12.7L261.4,533.4z"/>
	<path class="st2" d="M297.4,575.5h-9.8c-5.1,0-9.1-1.5-12-4.4c-2.9-2.9-4.3-7.1-4.3-12.4v-49.1h9.7v15.3h20.5l-4.3,8.5h-16.2V559
		c0,5.2,2.4,7.8,7.1,7.8h13.6L297.4,575.5z"/>
	<path class="st2" d="M586.1,508c-9.9,0-17.9,8.1-17.9,17.9c0,9.9,8,18,17.9,18c9.9,0,17.9-8.1,17.9-18C604,516.1,596,508,586.1,508
		 M586.1,547.6c-11.9,0-21.6-9.7-21.6-21.7c0-11.9,9.7-21.6,21.6-21.6c12,0,21.7,9.7,21.7,21.6C607.8,537.9,598,547.6,586.1,547.6"
		/>
	<path class="st2" d="M586.9,525.4c0.6,0,1.2,0,1.7-0.2c0.5-0.1,0.9-0.3,1.3-0.7c0.4-0.3,0.7-0.8,0.9-1.3c0.2-0.5,0.3-1.1,0.3-1.9
		c0-1.3-0.4-2.2-1.2-2.8c-0.8-0.6-1.8-0.8-3-0.8h-4.8v7.7H586.9z M578.6,537.7v-23h8.4c2.6,0,4.6,0.5,5.9,1.5c1.3,1.1,2,2.7,2,5.1
		c0,2-0.5,3.5-1.6,4.6c-0.8,0.8-1.7,1.4-2.7,1.7l5,10h-4l-4.6-9.4h-4.8v9.4H578.6z"/>
</g>
</svg>
