<?xml version="1.0" encoding="utf-8"?>
<!-- Generator: Adobe Illustrator 24.0.0, SVG Export Plug-In . SVG Version: 6.00 Build 0)  -->
<svg version="1.1" id="图层_1" xmlns="http://www.w3.org/2000/svg" xmlns:xlink="http://www.w3.org/1999/xlink" x="0px" y="0px"
	 viewBox="0 0 620 620" style="enable-background:new 0 0 620 620;" xml:space="preserve">
<style type="text/css">
	.st0{fill:#D33A39;}
</style>
<path class="st0" d="M74.5,323.3c-0.5-1.1-1.3-2.3-2.3-3.6c-1-1.3-2.2-2.6-3.5-4c-1.3-1.3-2.6-2.5-3.8-3.4l-3.9-3.1
	c-2.8-2.2-4.9-3.8-6.2-4.9c-1.3-1.1-2.4-2.1-3.2-3.1c-0.8-0.9-1.4-1.7-1.6-2.4c-0.3-0.7-0.4-1.4-0.4-2.1c0-1.6,0.9-2.9,2.8-3.9
	c1.9-1.1,4.2-1.6,7.1-1.6c2,0,4.4,0.3,7.2,0.8c2.5,0.5,5.1,1.2,8.1,2.4c0.5,0.2,1-0.2,1-0.8c-0.5-4.6-0.8-7.9-0.9-9.8
	c-0.1-1.9-0.2-4-0.3-6.3c0-0.3-0.3-0.6-0.6-0.7c-7-1.4-13.6-2-19.5-2c-3.1,0-6.2,0.2-9.1,0.7c-3,0.5-5.7,1.4-8.3,2.8
	c-2.6,1.3-4.7,3-6.2,4.8c-1.6,1.9-2.8,3.8-3.5,6c-0.8,2.1-1.2,4.3-1.2,6.5c0,1.9,0.2,3.6,0.7,5.3c0.5,1.7,1.3,3.3,2.4,4.9
	c1.1,1.6,2.6,3.3,4.5,5.2c0.9,0.9,2.6,2.4,5,4.4l10.3,9c0.9,0.8,1.7,1.6,2.2,2.3c0.5,0.7,0.9,1.3,1,1.9c0.2,0.6,0.3,1.2,0.3,1.8
	c0,1.8-0.9,3.2-2.8,4.1c-1.9,0.9-4.4,1.4-7.6,1.4c-2.4,0-5.2-0.4-8.4-1.1c-2.9-0.6-6.1-1.7-9.7-3.3c-0.5-0.2-1.1,0.2-1,0.8
	c0.5,4.4,1,10,1.4,16.8c0,0.3,0.3,0.6,0.6,0.7c8.7,1.6,16,2.4,21.8,2.4c3.8,0,7.5-0.4,10.9-1.1c3.4-0.8,6.6-2.1,9.5-4
	c2.9-1.9,5.1-4.3,6.7-7.3c1.6-3,2.4-6.1,2.4-9.4c0-1.3-0.1-2.5-0.4-3.6C75.4,325.5,75,324.4,74.5,323.3 M183.6,294.9
	c-3.8,0.1-6.9,0.1-9.3,0.1c-2.9,0-6,0-9.4-0.1c-0.3,0-0.6,0.2-0.7,0.5l-9.1,26.2c-0.9,2.5-1.4,4.1-1.6,4.8c-0.2,0.7-1.3,0.7-1.4-0.1
	l-0.2-0.8l-7.4-30c-0.1-0.3-0.4-0.6-0.7-0.6c-2.8,0.1-6,0.1-9.7,0.1c-3.5,0-6.9,0-10.3-0.1c-0.3,0-0.6,0.2-0.7,0.5l-7.7,22.5
	l-2.8,8.7c-0.2,0.7-1.2,0.7-1.4-0.1l-0.7-3l-7.6-28.1c-0.1-0.3-0.4-0.5-0.7-0.5c-2.9,0.1-5.9,0.1-9.1,0.1c-3.2,0-6.5,0-9.7-0.1
	c-0.5,0-0.9,0.5-0.7,1c4.2,11.5,10.2,29.6,17.9,54.2c0.1,0.3,0.4,0.5,0.7,0.5c4.2-0.1,7.6-0.1,10.2-0.1c2.3,0,5.2,0,8.8,0.1
	c0.3,0,0.6-0.2,0.7-0.5c2.3-6.1,5.9-16.1,10.8-30.1c0.2-0.7,1.3-0.6,1.4,0.1c1.5,7.1,2.6,12,3.3,14.7l3.7,15.2
	c0.1,0.3,0.4,0.6,0.7,0.6c4.3-0.1,7.8-0.1,10.6-0.1c2.5,0,5.5,0,9.1,0.1c0.3,0,0.6-0.2,0.7-0.5l3.3-8.2l19.7-46.1
	C184.5,295.4,184.1,294.9,183.6,294.9 M212.2,274.7c-2.9,0.1-6.2,0.1-10,0.1c-2.8,0-6.3,0-10.3-0.1c-0.4,0-0.8,0.3-0.7,0.8
	c0,0.9,0,1.6,0,2.2c0,2.4-0.1,5.5-0.3,9.5c0,0.4,0.3,0.8,0.7,0.8c3.7-0.1,7.2-0.1,10.4-0.1c3.1,0,6.3,0,9.6,0.1
	c0.4,0,0.7-0.3,0.7-0.7c0-1.1,0-2,0.1-2.9l0.3-6.8c0-0.6,0.1-1.2,0.2-2C212.9,275,212.6,274.7,212.2,274.7 M212,294.9
	c-4.5,0.1-7.9,0.1-10.3,0.1c-2.7,0-6.2,0-10.6-0.1c-0.4,0-0.7,0.3-0.7,0.7c-0.1,6.9-0.2,12.9-0.4,18.2c-0.2,5.4-0.4,10.4-0.6,14.9
	c-0.2,4.5-0.7,11.1-0.7,11.1c-0.5,5.8,4.1,10.8,9.9,10.8c0.4,0,7.6,0,11.6,0.1c0.4,0,0.7-0.3,0.7-0.7c0-3.9,0.1-10.7,0.2-20.3
	c0.1-5.8,0.2-11.3,0.5-16.5c0.3-5,0.7-10.8,1.2-17.3C212.8,295.2,212.4,294.8,212,294.9 M262.8,295.6h-10.9c-0.4,0-0.8-0.3-0.7-0.7
	c0.1-4.8,0.3-9.4,0.5-13.7c0-0.5-0.4-0.9-0.9-0.7c-5,1.2-8.4,2-10,2.3l-8.8,1.8c-0.3,0.1-0.6,0.3-0.6,0.7c-0.3,5.3-0.6,8.8-0.8,10.4
	l-1.2,15l-1.2,18.9c-0.2,3.2-0.3,5.3-0.4,6.2c0,0.9-0.1,1.6-0.1,1.9c0,2,0.3,4,0.9,5.8c0.6,1.8,1.7,3.4,3.3,4.8
	c1.6,1.4,3.6,2.4,6,2.9c2.4,0.5,5.2,0.8,8.2,0.8c1.9,0,3.9-0.1,5.9-0.3c1.9-0.2,4.6-0.7,8-1.4c0.3-0.1,0.5-0.3,0.6-0.6l1.1-6.2
	c0.4-2.5,0.9-5.1,1.4-7.8c0.1-0.5-0.4-1-0.9-0.9c-1.8,0.5-3.1,0.7-3.9,0.9c-0.9,0.1-1.9,0.2-2.7,0.2c-1.2,0-2.2-0.3-3.2-0.8
	c-1-0.5-1.6-1.3-2-2.5c-0.4-1.2-0.6-2.6-0.6-4.4c0-0.6,0-1.9,0.1-3.9l0.6-13c0-0.4,0.3-0.7,0.7-0.7h11.1c0.4,0,0.7-0.3,0.7-0.7
	c0-2.5,0.2-7,0.4-13.5C263.5,296,263.2,295.6,262.8,295.6 M317.7,300.9c-0.1-1.4-0.1-2.7-0.2-4l-0.1-0.7c0-0.3-0.3-0.6-0.6-0.6
	c-3.6-0.9-6.7-1.4-9.2-1.7c-2.6-0.3-5.2-0.4-7.8-0.4c-4.4,0-8.4,0.5-12.1,1.4c-3.6,0.9-7,2.8-9.9,5.5c-3,2.7-5.2,6.2-6.8,10.3
	c-1.5,4.2-2.3,8.5-2.3,13.1c0,4.9,0.8,9.4,2.4,13.3c1.3,3.4,3.4,6.3,6.3,8.8c2.8,2.4,6,4.1,9.5,5c3,0.8,6.5,1.2,10.4,1.2
	c5.3,0,10.7-0.6,16.3-1.9c0.3-0.1,0.5-0.3,0.6-0.6l1.3-8.2c0.5-3,0.9-5.3,1.1-6.8c0.1-0.5-0.5-1-1-0.8c-1.4,0.5-2.6,0.9-3.6,1.1
	c-1.3,0.3-2.7,0.6-4.4,0.8c-1.7,0.3-3.2,0.4-4.4,0.4c-2.4,0-4.7-0.5-6.7-1.4c-2-0.9-3.5-2.4-4.4-4.3c-0.9-1.9-1.4-4.3-1.4-7.1
	c0-2.8,0.5-5.2,1.6-7.3c1-2.1,2.6-3.7,4.8-4.8c2.2-1.1,4.7-1.7,7.6-1.7c3.7,0,8,0.8,12.8,2.4c0.5,0.2,1-0.2,1-0.7l-0.3-3.7
	C317.9,304.4,317.8,302.2,317.7,300.9 M387.7,297.9c-2-1.7-4.5-2.9-7.4-3.6c-2.9-0.7-5.9-1-9-1c-1.6,0-3.2,0.1-4.7,0.3
	c-1.5,0.2-2.9,0.4-4.2,0.8c-1.3,0.3-2.4,0.7-3.3,1.2c-1,0.4-1.9,1-2.8,1.6c-0.9,0.6-1.8,1.3-2.5,2.1c-0.4,0.4-0.9,1-1.5,1.6
	c-0.4,0.5-1.3,0.2-1.3-0.5c0.3-5.4,0.6-9,0.7-11l1.1-12.4c0-0.4-0.3-0.8-0.7-0.8c-3.3,0.1-6.7,0.1-10.3,0.1c-2.7,0-6.3,0-10.5-0.1
	c-0.4,0-0.7,0.3-0.7,0.7c0,5.3-0.1,10.8-0.2,16.4c-0.2,5.9-0.4,12-0.7,18.4c-0.5,9.7-1.1,18.2-1.6,25.5c0,0.6-0.1,1.2-0.1,1.9
	c-0.5,6.1,4.3,11.4,10.5,11.4h0.1c3,0,6.2,0,9.6,0.1c0.4,0,0.7-0.3,0.8-0.7c0.2-6.8,0.4-11.8,0.6-15c0.4-6,1-10.6,1.7-13.7
	c0.6-2.5,1.4-4.5,2.4-5.8c1.1-1.6,2.4-2.8,3.8-3.5c1.6-0.9,3.5-1.3,5.6-1.3c2.4,0,4.3,0.7,5.7,2.1c1.4,1.4,2.2,3.8,2.2,7.2
	c0,3.1-0.2,7.8-0.7,14.1c-0.1,1.8-0.3,3.5-0.4,5.2c-0.5,6.2,4.3,11.4,10.5,11.4h0.1c3.2,0,6.6,0,10.1,0.1c0.4,0,0.7-0.3,0.7-0.7
	c0-2,0-3.6,0-5c0-1.5,0.1-3.4,0.3-5.7l1.2-18.4c0.2-2.5,0.3-4.5,0.4-6.1c0-1.6,0.1-2.9,0.1-3.9c0-2.6-0.4-4.9-1.1-7
	C391.1,301.6,389.7,299.6,387.7,297.9 M469.5,319c-1.1-1.5-2.2-2.6-3.6-3.6c-1.3-0.9-2.6-1.6-3.7-2c-0.6-0.2-1.2-0.4-1.9-0.6
	c-0.7-0.2-0.8-1.2-0.1-1.4c0.7-0.3,1.4-0.5,1.9-0.8c1.2-0.5,2.3-1.3,3.5-2.3c1.2-1,2.3-2.2,3.3-3.7c1-1.5,1.7-3.1,2.2-5
	c0.5-1.9,0.8-3.9,0.8-5.9c0-2.7-0.4-5.1-1.4-7.5c-0.8-2-1.9-3.8-3.3-5.2c-1.3-1.2-2.9-2.3-4.8-3.1c-1.9-0.8-4.2-1.4-6.7-1.7
	c-1.9-0.3-5.2-0.4-9.7-0.4c-3.8,0-8.3,0.1-13.6,0.2c-5.3,0.2-9.9,0.2-13.9,0.2c-2.7,0-6.3,0-10.8-0.1c-0.4,0-0.7,0.3-0.7,0.7
	c0,2.5,0,4.6,0,6c0,4.5-0.2,12.2-0.5,23.1c-0.4,10.9-0.7,19.5-1.1,25.8c-0.1,2.4-0.3,5.2-0.6,8.4c-0.5,5.6,4,10.4,9.7,10.4l14.4,0
	c5.6,0,10.9-0.1,15.9-0.2c5-0.1,8.5-0.4,10.4-0.7c2.3-0.4,4.6-1.1,6.8-2.2c2.2-1.1,4-2.3,5.4-3.8c1.6-1.8,2.9-3.8,3.8-6.3
	c0.9-2.4,1.4-5,1.4-7.8c0-2-0.3-3.9-0.8-5.7C471.3,322.1,470.5,320.5,469.5,319 M429,291.2c0-0.4,0.3-0.7,0.7-0.7h9.1
	c2.9,0,5.1,0.3,6.5,0.8c1.4,0.5,2.5,1.3,3.1,2.3c0.6,1,1,2.2,1,3.6c0,0.9-0.2,1.9-0.5,2.8c-0.3,0.9-0.8,1.8-1.6,2.5
	c-0.7,0.8-1.6,1.3-2.7,1.6c-1,0.3-2.1,0.6-3.1,0.7c-1.1,0.1-2.9,0.2-5.4,0.2h-7c-0.4,0-0.8-0.4-0.7-0.8L429,291.2z M449.3,330.9
	c-0.5,1.1-1.1,2-2,2.7c-0.8,0.7-2,1.2-3.6,1.6c-1.3,0.3-3.4,0.5-6.1,0.5h-9.7c-0.4,0-0.7-0.3-0.7-0.8l0.6-14.3
	c0-0.4,0.3-0.7,0.7-0.7h10.8c2.5,0,4.3,0.1,5.4,0.4c1.2,0.3,2.1,0.7,2.9,1.3c0.8,0.6,1.4,1.4,1.8,2.3c0.4,0.9,0.6,2,0.6,3.2
	C450.1,328.5,449.8,329.7,449.3,330.9 M538.6,301.5c-2.9-2.6-6.4-4.6-10.6-6c-4.2-1.4-8.5-2.1-13-2.1c-4.9,0-9.5,0.8-14,2.3
	c-4.5,1.6-8.2,3.8-11.3,6.6c-3,2.9-5.3,6.1-6.7,9.7c-1.4,3.6-2.1,7.4-2.1,11.4c0,4,0.7,7.8,2.2,11.4c1.4,3.6,3.6,6.7,6.4,9.3
	c2.9,2.6,6.4,4.5,10.7,5.9c4.3,1.3,8.7,2,13.3,2c5,0,9.8-0.8,14.3-2.3c4.5-1.5,8.2-3.8,11.1-6.9c2.9-3.1,5-6.4,6.2-9.9
	c1.2-3.5,1.8-7.2,1.8-11.1c0-4-0.7-7.7-2-11.2C543.6,307.1,541.5,304.1,538.6,301.5 M523.7,329.3c-0.9,2.4-2.3,4.2-4.1,5.4
	c-1.8,1.2-3.9,1.8-6.2,1.8c-3,0-5.5-1.1-7.5-3.2c-2-2.1-3-5.2-3-9.2c0-2.7,0.5-5.3,1.4-7.6c0.9-2.3,2.3-4.1,4.1-5.3
	c1.8-1.2,3.9-1.8,6.2-1.8c2.2,0,4.2,0.5,5.8,1.6c1.7,1.1,2.8,2.6,3.6,4.4c0.7,1.8,1.1,3.9,1.1,6.1
	C525.1,324.3,524.6,326.9,523.7,329.3 M582.9,311.3c0-0.4,0.3-0.7,0.7-0.7h11.1c0.4,0,0.7-0.3,0.7-0.7c0-2.5,0.2-7,0.4-13.5
	c0-0.4-0.3-0.8-0.7-0.8h-11c-0.4,0-0.7-0.3-0.7-0.7c0.1-4.8,0.3-9.4,0.5-13.7c0-0.5-0.4-0.9-0.9-0.7c-5,1.2-8.4,2-10,2.3l-8.8,1.8
	c-0.3,0.1-0.6,0.3-0.6,0.7c-0.3,5.3-0.6,8.8-0.8,10.4l-1.2,15l-1.2,18.9c-0.2,3.2-0.4,5.3-0.4,6.2c0,0.9-0.1,1.6-0.1,1.9
	c0,2,0.3,4,0.9,5.8c0.6,1.8,1.7,3.4,3.3,4.8c1.6,1.4,3.6,2.4,6,2.9c2.4,0.5,5.2,0.8,8.2,0.8c1.9,0,3.9-0.1,5.9-0.3
	c1.9-0.2,4.6-0.7,8-1.4c0.3-0.1,0.5-0.3,0.6-0.6l1.1-6.2c0.4-2.5,0.9-5.1,1.4-7.8c0.1-0.5-0.4-1-0.9-0.9c-1.8,0.5-3.1,0.7-3.9,0.9
	c-1,0.1-1.9,0.2-2.7,0.2c-1.2,0-2.2-0.3-3.2-0.8c-1-0.5-1.6-1.3-2-2.5c-0.4-1.2-0.6-2.6-0.6-4.4c0-0.6,0-1.9,0.1-3.9L582.9,311.3z"
	/>
<g>
</g>
<g>
</g>
<g>
</g>
<g>
</g>
<g>
</g>
<g>
</g>
</svg>
