<svg id="bfd2e1c7-5749-469e-bcca-b54fc8a58dd4" data-name="Ebene 1" xmlns="http://www.w3.org/2000/svg" viewBox="0 0 1680 200"><defs><style>.f47f1586-00c5-4fb4-afc4-fa3b5eaab3ae{fill:none;stroke:#ccc;stroke-miterlimit:10;}.ee5d9f3c-0458-4529-aaf8-b140dc8951dc{fill:#f9b213;}.ab0552df-bceb-4cec-af2a-f82fbd908903{fill:#ccc;}.b387038e-6039-40d2-86ca-4767161e9af9{fill:#0058a3;}.b89def20-75aa-41db-a681-d7095c56898d{fill:#ffdb00;}</style></defs><title>HOOBS_x_ikea_gateway</title><g id="a8675dda-6f4f-499e-a609-183abb83daf0" data-name="Stroke"><line class="f47f1586-00c5-4fb4-afc4-fa3b5eaab3ae" x1="700.5" y1="60" x2="700.5" y2="140"/></g><path class="ee5d9f3c-0458-4529-aaf8-b140dc8951dc" d="M154.17,41.5h-78A19.5,19.5,0,0,0,56.67,61v78a19.5,19.5,0,0,0,19.5,19.5h78a19.5,19.5,0,0,0,19.5-19.5V61A19.5,19.5,0,0,0,154.17,41.5Zm2,59.26a3.24,3.24,0,0,1-4.59,0,3.21,3.21,0,0,1-.95-2.09l-8.82-8.82V69.92a1.63,1.63,0,0,0-1.63-1.63h-3.25a1.63,1.63,0,0,0-1.62,1.63V83.6l-4.88-5.13-15-15a1.62,1.62,0,0,0-2.3,0L78.59,97.89a1.64,1.64,0,0,0,0,2.3l2.3,2.3a1.64,1.64,0,0,0,2.3,0l26.43-26.43a6.49,6.49,0,0,1,9.19,0l26.43,26.43a6.51,6.51,0,0,1,0,9.19l-2.3,2.3a6.49,6.49,0,0,1-9.19,0L115.36,95.59a1.64,1.64,0,0,0-2.3,0L94.68,114a1.62,1.62,0,0,0,0,2.3l2.3,2.29a1.61,1.61,0,0,0,2.29,0l10.35-10.34a6.49,6.49,0,0,1,9.19,0l10.34,10.34a6.51,6.51,0,0,1,0,9.2L118,138.89a3.21,3.21,0,0,1-1,2.09,3.25,3.25,0,1,1-2.5-5.54l11.12-11.12a1.62,1.62,0,0,0,0-2.3l-10.34-10.34a1.62,1.62,0,0,0-2.3,0L102.72,122a6.49,6.49,0,0,1-9.19,0l-2.3-2.3a6.49,6.49,0,0,1,0-9.19l18.39-18.38a6.49,6.49,0,0,1,9.19,0l18.38,18.38a1.64,1.64,0,0,0,2.3,0l2.3-2.3a1.64,1.64,0,0,0,0-2.3L115.36,79.51a1.62,1.62,0,0,0-2.3,0L86.63,105.93a6.49,6.49,0,0,1-9.19,0l-2.3-2.29a6.52,6.52,0,0,1,0-9.2L109.62,60a6.49,6.49,0,0,1,9.19,0l11.6,11.61V69.92a6.5,6.5,0,0,1,6.5-6.5h3.25a6.5,6.5,0,0,1,6.5,6.5V87.83l7.4,7.39a3.25,3.25,0,0,1,2.09,5.54Z"/><path class="ee5d9f3c-0458-4529-aaf8-b140dc8951dc" d="M612.42,61H624.1v3.65h-3.71v11H616.1v-11h-3.68Zm13.09,0h4.72l3.34,7.78L637,61h4.72V75.62h-3.85V67.39l-2.77,6.81h-2.92l-2.77-6.81v8.23h-3.85Z"/><path class="ee5d9f3c-0458-4529-aaf8-b140dc8951dc" d="M271.65,61v78H254.31V107h-34v32H202.92V61h17.35V91.75h34V61Zm10.65,39c0-22.41,16.77-39,39.65-39s39.64,16.48,39.64,39S344.72,139,322,139,282.3,122.41,282.3,100Zm62.09.39c0-14.19-9.63-23.9-22.44-23.9s-22.45,9.71-22.45,23.9,9.64,23.89,22.45,23.89S344.39,114.57,344.39,100.39ZM368.8,100c0-22.41,16.77-39,39.65-39s39.64,16.48,39.64,39-16.87,39-39.64,39S368.8,122.41,368.8,100Zm62.09.39c0-14.19-9.63-23.9-22.44-23.9S386,86.2,386,100.39s9.64,23.89,22.45,23.89S430.89,114.57,430.89,100.39Zm96.58,17.33c0,13.48-10.28,21.28-30,21.28H458.74V61h36.61c18.74,0,28.38,8.13,28.38,20.28a18.86,18.86,0,0,1-10,17.16C522.12,101.23,527.47,107.91,527.47,117.72ZM476.71,76.06V93.67h16.5c8.1,0,12.5-3,12.5-8.86s-4.4-8.75-12.5-8.75Zm32.59,39.47c0-6.29-4.61-9.28-13.22-9.28H476.71v18.46h19.37C504.69,124.71,509.3,121.93,509.3,115.53Zm23.38,14.74,5.69-13.14A41.52,41.52,0,0,0,562.28,125c9.94,0,14-3.44,14-8.08,0-14.11-42.13-4.41-42.13-32.42,0-12.82,9.94-23.49,30.53-23.49,9.11,0,18.43,2.26,25.16,6.68l-5.18,13.25A39.67,39.67,0,0,0,564.56,75c-9.94,0-13.77,3.87-13.77,8.61,0,13.9,42.13,4.31,42.13,32,0,12.61-10,23.38-30.74,23.38C550.69,139,539.1,135.44,532.68,130.27Z"/><path class="ab0552df-bceb-4cec-af2a-f82fbd908903" d="M1158.17,84.74h-18.78v48.52h-15.66V84.74H1105V73h53.22Z"/><path class="ab0552df-bceb-4cec-af2a-f82fbd908903" d="M1224.3,133.26h-19.17l-16.44-21.91h-7v21.91h-15.26V73.39h26.21a54.42,54.42,0,0,1,9,.78,14.13,14.13,0,0,1,7,2.74c2.34,1.18,3.91,3.13,5.48,5.09a16,16,0,0,1,2,8.22,19.15,19.15,0,0,1-3.13,11,24.17,24.17,0,0,1-9,7ZM1200,91.8a11.88,11.88,0,0,0-.78-3.91c-.4-1.17-1.57-2-3.13-2.74a11.29,11.29,0,0,0-3.53-.78h-11v16h4.69a29.86,29.86,0,0,0,6.26-.39,13.87,13.87,0,0,0,4.31-1.57,5.41,5.41,0,0,0,2.35-2.73A12,12,0,0,0,1200,91.8Z"/><path class="ab0552df-bceb-4cec-af2a-f82fbd908903" d="M1290,133.26h-16l-4.3-12.13h-22.3l-4.31,12.13h-15.65l21.13-57.52a14,14,0,0,1-2.74-3.91,10.25,10.25,0,0,1-1.17-4.7c0-3.52,1.56-6.26,4.3-8.61a15.37,15.37,0,0,1,19.57,0,11.6,11.6,0,0,1,4.3,8.61,10.51,10.51,0,0,1-1.17,4.7,8.85,8.85,0,0,1-2.74,3.52Zm-23.87-23.09-7.44-21.52-7.43,21.52Zm-1.57-43a5.87,5.87,0,0,0-1.56-4.3,5.67,5.67,0,0,0-7.83,0,5.3,5.3,0,0,0-1.56,4.3,5.84,5.84,0,0,0,1.56,4.3,5,5,0,0,0,3.92,1.57c1.56,0,3.13-.39,3.91-1.57a5.36,5.36,0,0,0,1.56-4.34Z"/><path class="ab0552df-bceb-4cec-af2a-f82fbd908903" d="M1355,103.52a27.29,27.29,0,0,1-3.91,14.87,29.31,29.31,0,0,1-19.56,14.09,60,60,0,0,1-12.53,1.17h-21.13V73.39h21.92a57.25,57.25,0,0,1,12.52,1.17,27.19,27.19,0,0,1,9,3.53A24.58,24.58,0,0,1,1351,88.26C1353.82,92.56,1355,97.65,1355,103.52Zm-16-.39A20.65,20.65,0,0,0,1336.6,93a16.53,16.53,0,0,0-7-6.66,21.79,21.79,0,0,0-4.7-1.56,38.5,38.5,0,0,0-7.43-.39h-3.91v37.56h3.91a48.12,48.12,0,0,0,8.22-.39,13.72,13.72,0,0,0,5.08-2,14.66,14.66,0,0,0,6.26-6.65A21.63,21.63,0,0,0,1339,103.13Z"/><path class="ab0552df-bceb-4cec-af2a-f82fbd908903" d="M1408.6,84.74h-27.78V96.09h25.83V107.8h-25.83v25.82h-15.26V73.39h43Z"/><path class="ab0552df-bceb-4cec-af2a-f82fbd908903" d="M1476,133.26h-18.78l-16.44-21.91h-7v21.91h-15.26V73.39h26.21a54.42,54.42,0,0,1,9,.78,14.13,14.13,0,0,1,7,2.74c2.34,1.18,3.91,3.13,5.48,5.09a16,16,0,0,1,2,8.22,19.15,19.15,0,0,1-3.13,11,24.17,24.17,0,0,1-9,7Zm-24.3-41.46a11.4,11.4,0,0,0-.79-3.91,7.29,7.29,0,0,0-3.13-2.74,11.29,11.29,0,0,0-3.52-.78h-10.56v16h4.69a29.86,29.86,0,0,0,6.26-.39,13.87,13.87,0,0,0,4.31-1.57,5.41,5.41,0,0,0,2.35-2.73C1451.26,94.52,1451.65,93.35,1451.65,91.8Z"/><path class="ab0552df-bceb-4cec-af2a-f82fbd908903" d="M1516.6,133.26h-35.21V122.7h9.78V84h-9.78V73.39h35.21V84h-9.78V122.7h9.78Z"/><g id="b1ef0376-f224-421d-8905-b2aacb9fe814" data-name="layer1"><path id="b823c947-beff-4fef-9abf-9585a39b51a1" data-name="path836" class="b387038e-6039-40d2-86ca-4767161e9af9" d="M1073.78,160H778.58V40h295.2Z"/><path id="abde4029-92e2-47a8-9f3f-ea893eb4087a" data-name="path838" class="b89def20-75aa-41db-a681-d7095c56898d" d="M784,100c0,28.8,59.4,52.79,142.2,52.79,82.2,0,142.2-24,142.2-52.79S1009,47.19,926.18,47.19,784,71.2,784,100Z"/><path id="a5306d12-1da6-4b1a-ab2c-b5c89a24a80d" data-name="path840" class="b387038e-6039-40d2-86ca-4767161e9af9" d="M878.19,77.2a7.53,7.53,0,0,0-.6,3.6V96.4s8.4-10.74,10.2-13.8c1.19-1.8,3.6-4.8,3.6-6H919a48.88,48.88,0,0,0-6,5.4c-1.8,1.79-10.2,12.6-10.2,12.6s12.61,19.8,14.4,22.2c1.21,1.2,1.81,2.4,3.07,3.59H888.38a20.31,20.31,0,0,0-2.39-6c-1.21-1.8-8.4-13.21-8.4-13.21v15a7.53,7.53,0,0,0,.6,3.6H851.78a7.65,7.65,0,0,0,.6-3.6V79.59a7.61,7.61,0,0,0-.6-3.59h26.41Zm98.39,0H925a7.53,7.53,0,0,1,.6,3.6v36.6A7.61,7.61,0,0,1,925,121h51.6V109a7.65,7.65,0,0,1-3.6.6H951.39v-6h21v-9h-21v-6H973a7.42,7.42,0,0,1,3.6.61ZM1048,117.4l1.79,3.59h-27.6c0-1.2-.59-2.39-.59-3.59l-1.2-2.41v-.59h-16.21V115a6.34,6.34,0,0,0-.6,2.41A7.61,7.61,0,0,0,1003,121H980.78c.6-1.2,1.81-2.39,1.81-3.59l13.19-36.6c.61-1.21,1.21-2.41.61-3.6h37.2c-.61,1.19.6,2.39.6,3.6.6,3.07,12.59,34.19,13.8,36.6m-31.8-12.6-3.61-10.2a5.44,5.44,0,0,1-.59-3.07c0,1.2-.6,1.8-.6,3.07,0,.6-1.81,4.8-3.6,10.2ZM838,80.8a7.65,7.65,0,0,1,.6-3.6h-28.8a7.53,7.53,0,0,1,.6,3.6v36.6a7.61,7.61,0,0,1-.6,3.59h28.8a7.74,7.74,0,0,1-.6-3.59Zm201,0a5.7,5.7,0,1,0,11.39.6h0a5.89,5.89,0,0,0-5.4-6h0c-3.6-.62-6,1.79-6,5.4h0m10.2,0a4.51,4.51,0,0,1-9,.59h0a4.6,4.6,0,0,1,4.2-4.8h.59c2.41-.59,4.21,1.2,4.21,4.21h0m-1.8,3.6h-1.21L1045,82h-1.19V84.4h-1.2V77.2H1045a2.58,2.58,0,0,1,2.41,2.39c0,.61-.61,1.81-1.21,1.81Zm-2.41-3.6a1.21,1.21,0,0,0,1.07-1.34,1.19,1.19,0,0,0-1.07-1.07h-1.19v2.41H1045"/></g></svg>